{
  "accessors": [
    {
      "bufferView": 2,
      "componentType": 5126,
      "count": 6325,
      "max": [
        1.1956734657287598,
        0.93574988842010498,
        0.91796249151229858
      ],
      "min": [
        -1.1956734657287598,
        -1.935941219329834,
        -0.99359524250030518
      ],
      "type": "VEC3"
    },
    {
      "bufferView": 2,
      "byteOffset": 75900,
      "componentType": 5126,
      "count": 6325,
      "max": [
        0.99999940395355225,
        1,
        0.99975299835205078
      ],
      "min": [
        -0.99999940395355225,
        -0.99998235702514648,
        -1
      ],
      "type": "VEC3"
    },
    {
      "bufferView": 1,
      "componentType": 5126,
      "count": 6325,
      "max": [
        0.75000011920928955,
        1.0000001192092896
      ],
      "min": [
        0.24999980628490448,
        0.18749998509883881
      ],
      "type": "VEC2"
    },
    {
      "bufferView": 0,
      "componentType": 5125,
      "count": 28368,
      "max": [
        6324
      ],
      "min": [
        0
      ],
      "type": "SCALAR"
    },
    {
      "bufferView": 2,
      "byteOffset": 151800,
      "componentType": 5126,
      "count": 2589,
      "max": [
        1.2077134847640991,
        0.80766159296035767,
        0.90706253051757812
      ],
      "min": [
        -1.2077134847640991,
        -1.7420680522918701,
        -0.24863255023956299
      ],
      "type": "VEC3"
    },
    {
      "bufferView": 2,
      "byteOffset": 182868,
      "componentType": 5126,
      "count": 2589,
      "max": [
        0.94202625751495361,
        0.97885847091674805,
        0.99999070167541504
      ],
      "min": [
        -0.94203370809555054,
        -0.93478375673294067,
        -0.99687713384628296
      ],
      "type": "VEC3"
    },
    {
      "bufferView": 1,
      "byteOffset": 50600,
      "componentType": 5126,
      "count": 2589,
      "max": [
        0.56249994039535522,
        0.81843900680541992
      ],
      "min": [
        0.24999746680259705,
        0.18749998509883881
      ],
      "type": "VEC2"
    },
    {
      "bufferView": 0,
      "byteOffset": 113472,
      "componentType": 5125,
      "count": 10296,
      "max": [
        2588
      ],
      "min": [
        0
      ],
      "type": "SCALAR"
    },
    {
      "bufferView": 2,
      "byteOffset": 213936,
      "componentType": 5126,
      "count": 8412,
      "max": [
        1.4393541812896729,
        0.82304233312606812,
        0.99724280834197998
      ],
      "min": [
        -1.4393541812896729,
        -2.2626490592956543,
        -0.5848003625869751
      ],
      "type": "VEC3"
    },
    {
      "bufferView": 2,
      "byteOffset": 314880,
      "componentType": 5126,
      "count": 8412,
      "max": [
        0.99995636940002441,
        0.99916195869445801,
        0.99975299835205078
      ],
      "min": [
        -0.99995636940002441,
        -1,
        -0.99620348215103149
      ],
      "type": "VEC3"
    },
    {
      "bufferView": 1,
      "byteOffset": 71312,
      "componentType": 5126,
      "count": 8412,
      "max": [
        1.0000003576278687,
        1.0000001192092896
      ],
      "min": [
        1.0927519156211929e-07,
        0.18749997019767761
      ],
      "type": "VEC2"
    },
    {
      "bufferView": 0,
      "byteOffset": 154656,
      "componentType": 5125,
      "count": 32640,
      "max": [
        8411
      ],
      "min": [
        0
      ],
      "type": "SCALAR"
    },
    {
      "bufferView": 2,
      "byteOffset": 415824,
      "componentType": 5126,
      "count": 1834,
      "max": [
        0.6920400857925415,
        0.022404320538043976,
        0.98712277412414551
      ],
      "min": [
        -0.6920400857925415,
        -0.70305907726287842,
        0.056955460458993912
      ],
      "type": "VEC3"
    },
    {
      "bufferView": 2,
      "byteOffset": 437832,
      "componentType": 5126,
      "count": 1834,
      "max": [
        0.99875932931900024,
        0.99968302249908447,
        0.99999916553497314
      ],
      "min": [
        -0.99875932931900024,
        -0.99986422061920166,
        -0.45385450124740601
      ],
      "type": "VEC3"
    },
    {
      "bufferView": 1,
      "byteOffset": 138608,
      "componentType": 5126,
      "count": 1834,
      "max": [
        0.37053182721138,
        0.49488043785095215
      ],
      "min": [
        0.24991433322429657,
        0.25978472828865051
      ],
      "type": "VEC2"
    },
    {
      "bufferView": 0,
      "byteOffset": 285216,
      "componentType": 5125,
      "count": 7644,
      "max": [
        1833
      ],
      "min": [
        0
      ],
      "type": "SCALAR"
    },
    {
      "bufferView": 2,
      "byteOffset": 459840,
      "componentType": 5126,
      "count": 18377,
      "max": [
        0.8727537989616394,
        0.67954355478286743,
        0.93591213226318359
      ],
      "min": [
        -0.8727537989616394,
        -0.86806732416152954,
        -0.59953862428665161
      ],
      "type": "VEC3"
    },
    {
      "bufferView": 2,
      "byteOffset": 680364,
      "componentType": 5126,
      "count": 18377,
      "max": [
        0.9999845027923584,
        0.99997627735137939,
        0.99995577335357666
      ],
      "min": [
        -0.9999845027923584,
        -0.99999487400054932,
        -0.99936497211456299
      ],
      "type": "VEC3"
    },
    {
      "bufferView": 1,
      "byteOffset": 153280,
      "componentType": 5126,
      "count": 18377,
      "max": [
        1.0000002384185791,
        1.0557724237442017
      ],
      "min": [
        0,
        0.010000006295740604
      ],
      "type": "VEC2"
    },
    {
      "bufferView": 0,
      "byteOffset": 315792,
      "componentType": 5125,
      "count": 84924,
      "max": [
        18376
      ],
      "min": [
        0
      ],
      "type": "SCALAR"
    },
    {
      "bufferView": 2,
      "byteOffset": 900888,
      "componentType": 5126,
      "count": 4274,
      "max": [
        0.11557108908891678,
        -1.5606485605239868,
        -0.56324619054794312
      ],
      "min": [
        -0.11557108908891678,
        -1.7919462919235229,
        -0.79557007551193237
      ],
      "type": "VEC3"
    },
    {
      "bufferView": 2,
      "byteOffset": 952176,
      "componentType": 5126,
      "count": 4274,
      "max": [
        1,
        0.99959456920623779,
        0.9997866153717041
      ],
      "min": [
        -1,
        -0.99959540367126465,
        -0.9997866153717041
      ],
      "type": "VEC3"
    },
    {
      "bufferView": 1,
      "byteOffset": 300296,
      "componentType": 5126,
      "count": 4274,
      "max": [
        1.0000003576278687,
        0.95833349227905273
      ],
      "min": [
        0,
        0
      ],
      "type": "VEC2"
    },
    {
      "bufferView": 0,
      "byteOffset": 655488,
      "componentType": 5125,
      "count": 22656,
      "max": [
        4273
      ],
      "min": [
        0
      ],
      "type": "SCALAR"
    },
    {
      "bufferView": 2,
      "byteOffset": 1003464,
      "componentType": 5126,
      "count": 559,
      "max": [
        1.0362497568130493,
        1.5686783790588379,
        0.59255528450012207
      ],
      "min": [
        -1.0362495183944702,
        -0.74374008178710938,
        -0.59255558252334595
      ],
      "type": "VEC3"
    },
    {
      "bufferView": 2,
      "byteOffset": 1010172,
      "componentType": 5126,
      "count": 559,
      "max": [
        1,
        0.97661882638931274,
        0.99879521131515503
      ],
      "min": [
        -1,
        -0.97661882638931274,
        -0.99879521131515503
      ],
      "type": "VEC3"
    },
    {
      "bufferView": 1,
      "byteOffset": 334488,
      "componentType": 5126,
      "count": 559,
      "max": [
        1.0000002384185791,
        1
      ],
      "min": [
        0,
        0
      ],
      "type": "VEC2"
    },
    {
      "bufferView": 0,
      "byteOffset": 746112,
      "componentType": 5125,
      "count": 2880,
      "max": [
        558
      ],
      "min": [
        0
      ],
      "type": "SCALAR"
    },
    {
      "bufferView": 2,
      "byteOffset": 1016880,
      "componentType": 5126,
      "count": 559,
      "max": [
        1.0000002384185791,
        1,
        1.0000003576278687
      ],
      "min": [
        -0.99999982118606567,
        -1,
        -1
      ],
      "type": "VEC3"
    },
    {
      "bufferView": 2,
      "byteOffset": 1023588,
      "componentType": 5126,
      "count": 559,
      "max": [
        1,
        1,
        1
      ],
      "min": [
        -1,
        -1,
        -1
      ],
      "type": "VEC3"
    },
    {
      "bufferView": 1,
      "byteOffset": 338960,
      "componentType": 5126,
      "count": 559,
      "max": [
        1.0000002384185791,
        1
      ],
      "min": [
        0,
        0
      ],
      "type": "VEC2"
    },
    {
      "bufferView": 0,
      "byteOffset": 757632,
      "componentType": 5125,
      "count": 2880,
      "max": [
        558
      ],
      "min": [
        0
      ],
      "type": "SCALAR"
    },
    {
      "bufferView": 2,
      "byteOffset": 1030296,
      "componentType": 5126,
      "count": 1004,
      "max": [
        1.0677430629730225,
        1,
        1.067743182182312
      ],
      "min": [
        -1.0677427053451538,
        -1,
        -1.0677428245544434
      ],
      "type": "VEC3"
    },
    {
      "bufferView": 2,
      "byteOffset": 1042344,
      "componentType": 5126,
      "count": 1004,
      "max": [
        1,
        1,
        1
      ],
      "min": [
        -1,
        -1,
        -1
      ],
      "type": "VEC3"
    },
    {
      "bufferView": 1,
      "byteOffset": 343432,
      "componentType": 5126,
      "count": 1004,
      "max": [
        1.000002384185791,
        1
      ],
      "min": [
        -2.3581496861879714e-06,
        0
      ],
      "type": "VEC2"
    },
    {
      "bufferView": 0,
      "byteOffset": 769152,
      "componentType": 5125,
      "count": 5184,
      "max": [
        1003
      ],
      "min": [
        0
      ],
      "type": "SCALAR"
    }
  ],
  "asset": {
    "extras": {
      "author": "sharmadeepakkumar991 (https://sketchfab.com/sharmadeepakkumar991)",
      "license": "CC-BY-4.0 (http://creativecommons.org/licenses/by/4.0/)",
      "source": "https://sketchfab.com/3d-models/doraemon-d1f580c1476247208b01af5a5d73f80d",
      "title": "Doraemon"
    },
    "generator": "Sketchfab-9.41.1",
    "version": "2.0"
  },
  "bufferViews": [
    {
      "buffer": 0,
      "byteLength": 789888,
      "byteOffset": 0,
      "name": "floatBufferViews",
      "target": 34963
    },
    {
      "buffer": 0,
      "byteLength": 351464,
      "byteOffset": 789888,
      "byteStride": 8,
      "name": "floatBufferViews",
      "target": 34962
    },
    {
      "buffer": 0,
      "byteLength": 1054392,
      "byteOffset": 1141352,
      "byteStride": 12,
      "name": "floatBufferViews",
      "target": 34962
    }
  ],
  "buffers": [
    {
      "byteLength": 2195744,
      "uri": "scene.bin"
    }
  ],
  "materials": [
    {
      "doubleSided": true,
      "emissiveFactor": [
        0,
        0,
        0
      ],
      "name": "blue",
      "pbrMetallicRoughness": {
        "baseColorFactor": [
          0.036448899999999999,
          0.122458,
          0.26973599999999998,
          1
        ],
        "metallicFactor": 0,
        "roughnessFactor": 0.97432861209999999
      }
    },
    {
      "doubleSided": true,
      "emissiveFactor": [
        0,
        0,
        0
      ],
      "name": "Material.003",
      "pbrMetallicRoughness": {
        "baseColorFactor": [
          0.35594900000000002,
          0.35594900000000002,
          0.35594900000000002,
          1
        ],
        "metallicFactor": 0,
        "roughnessFactor": 0.92040738389999999
      }
    },
    {
      "doubleSided": true,
      "emissiveFactor": [
        0,
        0,
        0
      ],
      "name": "white",
      "pbrMetallicRoughness": {
        "baseColorFactor": [
          0.80000000000000004,
          0.80000000000000004,
          0.80000000000000004,
          1
        ],
        "metallicFactor": 0,
        "roughnessFactor": 0.82111456179999998
      }
    },
    {
      "doubleSided": true,
      "emissiveFactor": [
        0,
        0,
        0
      ],
      "name": "Material.002",
      "pbrMetallicRoughness": {
        "baseColorFactor": [
          0.32314300000000001,
          0.024157600000000001,
          0.029556800000000001,
          1
        ],
        "metallicFactor": 0,
        "roughnessFactor": 0.98029762080000005
      }
    },
    {
      "doubleSided": true,
      "emissiveFactor": [
        0,
        0,
        0
      ],
      "name": "black",
      "pbrMetallicRoughness": {
        "baseColorFactor": [
          0.0059252699999999998,
          0.0059252699999999998,
          0.0059252699999999998,
          1
        ],
        "metallicFactor": 0,
        "roughnessFactor": 0.99867506930000005
      }
    },
    {
      "doubleSided": true,
      "emissiveFactor": [
        0,
        0,
        0
      ],
      "name": "material",
      "pbrMetallicRoughness": {
        "baseColorFactor": [
          0.099898700000000007,
          0.0116122,
          0.0103298,
          1
        ],
        "metallicFactor": 0,
        "roughnessFactor": 0.99322710199999997
      }
    },
    {
      "doubleSided": true,
      "emissiveFactor": [
        0,
        0,
        0
      ],
      "name": "tounge",
      "pbrMetallicRoughness": {
        "baseColorFactor": [
          0.64447100000000002,
          0.081788600000000003,
          0.043344199999999999,
          1
        ],
        "metallicFactor": 0,
        "roughnessFactor": 0.96844863699578532
      }
    },
    {
      "doubleSided": true,
      "emissiveFactor": [
        0,
        0,
        0
      ],
      "name": "yellow",
      "pbrMetallicRoughness": {
        "baseColorFactor": [
          0.57447999999999999,
          0.29178999999999999,
          0.0081893299999999999,
          1
        ],
        "metallicFactor": 0,
        "roughnessFactor": 0.90503379848042487
      }
    }
  ],
  "meshes": [
    {
      "name": "body_blue_0",
      "primitives": [
        {
          "attributes": {
            "NORMAL": 1,
            "POSITION": 0,
            "TEXCOORD_0": 2
          },
          "indices": 3,
          "material": 0,
          "mode": 4
        }
      ]
    },
    {
      "name": "body_Material.003_0",
      "primitives": [
        {
          "attributes": {
            "NORMAL": 5,
            "POSITION": 4,
            "TEXCOORD_0": 6
          },
          "indices": 7,
          "material": 1,
          "mode": 4
        }
      ]
    },
    {
      "name": "body_white_0",
      "primitives": [
        {
          "attributes": {
            "NORMAL": 9,
            "POSITION": 8,
            "TEXCOORD_0": 10
          },
          "indices": 11,
          "material": 2,
          "mode": 4
        }
      ]
    },
    {
      "name": "body_Material.002_0",
      "primitives": [
        {
          "attributes": {
            "NORMAL": 13,
            "POSITION": 12,
            "TEXCOORD_0": 14
          },
          "indices": 15,
          "material": 3,
          "mode": 4
        }
      ]
    },
    {
      "name": "body_black_0",
      "primitives": [
        {
          "attributes": {
            "NORMAL": 17,
            "POSITION": 16,
            "TEXCOORD_0": 18
          },
          "indices": 19,
          "material": 4,
          "mode": 4
        }
      ]
    },
    {
      "name": "body_red_0",
      "primitives": [
        {
          "attributes": {
            "NORMAL": 21,
            "POSITION": 20,
            "TEXCOORD_0": 22
          },
          "indices": 23,
          "material": 5,
          "mode": 4
        }
      ]
    },
    {
      "name": "tongue_tounge_0",
      "primitives": [
        {
          "attributes": {
            "NORMAL": 25,
            "POSITION": 24,
            "TEXCOORD_0": 26
          },
          "indices": 27,
          "material": 6,
          "mode": 4
        }
      ]
    },
    {
      "name": "nose_red_0",
      "primitives": [
        {
          "attributes": {
            "NORMAL": 29,
            "POSITION": 28,
            "TEXCOORD_0": 30
          },
          "indices": 31,
          "material": 5,
          "mode": 4
        }
      ]
    },
    {
      "name": "bell_yellow_0",
      "primitives": [
        {
          "attributes": {
            "NORMAL": 33,
            "POSITION": 32,
            "TEXCOORD_0": 34
          },
          "indices": 35,
          "material": 7,
          "mode": 4
        }
      ]
    }
  ],
  "nodes": [
    {
      "children": [
        1
      ],
      "name": "RootNode (gltf orientation matrix)",
      "rotation": [
        -0.70710678118654746,
        -0,
        -0,
        0.70710678118654757
      ]
    },
    {
      "children": [
        2
      ],
      "name": "RootNode (model correction matrix)"
    },
    {
      "children": [
        3
      ],
      "matrix": [
        1,
        0,
        0,
        0,
        0,
        0,
        1,
        0,
        0,
        -1,
        0,
        0,
        0,
        0,
        0,
        1
      ],
      "name": "a2d5655d31e247f5acfb3390718f13f8.fbx"
    },
    {
      "children": [
        4,
        11,
        13,
        15
      ],
      "name": "RootNode"
    },
    {
      "children": [
        5,
        6,
        7,
        8,
        9,
        10
      ],
      "matrix": [
        1.281131386756897,
        0,
        0,
        0,
        0,
        1.281131386756897,
        0,
        0,
        0,
        0,
        1.281131386756897,
        0,
        0,
        3.0091514587402344,
        -0.038284078240394592,
        1
      ],
      "name": "body"
    },
    {
      "mesh": 0,
      "name": "body_blue_0"
    },
    {
      "mesh": 1,
      "name": "body_Material.003_0"
    },
    {
      "mesh": 2,
      "name": "body_white_0"
    },
    {
      "mesh": 3,
      "name": "body_Material.002_0"
    },
    {
      "mesh": 4,
      "name": "body_black_0"
    },
    {
      "mesh": 5,
      "name": "body_red_0"
    },
    {
      "children": [
        12
      ],
      "matrix": [
        0.64244687557220459,
        0,
        0,
        0,
        0,
        0.23593582494672838,
        0.017661655405397519,
        0,
        0,
        -0.066777990754254682,
        0.89206362457253852,
        0,
        0,
        2.3771700859069824,
        0.25073841214179993,
        1
      ],
      "name": "tongue"
    },
    {
      "mesh": 6,
      "name": "tongue_tounge_0"
    },
    {
      "children": [
        14
      ],
      "matrix": [
        0.15068502724170685,
        0,
        0,
        0,
        0,
        -0.031107481081321234,
        -0.14743914695768276,
        0,
        0,
        0.14743914695768276,
        -0.031107481081321234,
        0,
        0,
        3.5061020851135254,
        1.1868860721588135,
        1
      ],
      "name": "nose"
    },
    {
      "mesh": 7,
      "name": "nose_red_0"
    },
    {
      "children": [
        16
      ],
      "matrix": [
        0.16748392581939697,
        0,
        0,
        0,
        0,
        0.16571740786414058,
        -0.024261309323231516,
        0,
        0,
        0.024261309323231516,
        0.16571740786414058,
        0,
        0,
        1.8997758626937866,
        0.84850722551345825,
        1
      ],
      "name": "bell"
    },
    {
      "mesh": 8,
      "name": "bell_yellow_0"
    }
  ],
  "scene": 0,
  "scenes": [
    {
      "name": "OSG_Scene",
      "nodes": [
        0
      ]
    }
  ]
}

